<mxfile host="app.diagrams.net" modified="2022-08-15T12:08:40.356Z" agent="5.0 (Windows NT 10.0; Win64; x64) AppleWebKit/537.36 (KHTML, like Gecko) Chrome/104.0.0.0 Safari/537.36" etag="hGpY4pDe13RwlO8BaWsO" version="20.2.3" type="github">
  <diagram id="BUonVHQFYdTOmrVx8Azr" name="Page-1">
    <mxGraphModel dx="1022" dy="460" grid="1" gridSize="10" guides="1" tooltips="1" connect="1" arrows="1" fold="1" page="1" pageScale="1" pageWidth="827" pageHeight="1169" math="0" shadow="0">
      <root>
        <mxCell id="0" />
        <mxCell id="1" parent="0" />
        <mxCell id="HxUZXKI_hmSF7GH5_cT5-3" value="" style="edgeStyle=orthogonalEdgeStyle;rounded=0;orthogonalLoop=1;jettySize=auto;html=1;" edge="1" parent="1" source="HxUZXKI_hmSF7GH5_cT5-1" target="HxUZXKI_hmSF7GH5_cT5-2">
          <mxGeometry relative="1" as="geometry" />
        </mxCell>
        <mxCell id="HxUZXKI_hmSF7GH5_cT5-1" value="Admissions Diagnosed with&amp;nbsp;&lt;br&gt;&quot;Sepsis&quot;, &quot;Severe Sepsis&quot;, &quot;Septic Shock&quot;" style="rounded=1;whiteSpace=wrap;html=1;" vertex="1" parent="1">
          <mxGeometry x="300" y="30" width="180" height="60" as="geometry" />
        </mxCell>
        <mxCell id="HxUZXKI_hmSF7GH5_cT5-2" value="" style="whiteSpace=wrap;html=1;rounded=1;" vertex="1" parent="1">
          <mxGeometry x="330" y="170" width="120" height="60" as="geometry" />
        </mxCell>
      </root>
    </mxGraphModel>
  </diagram>
</mxfile>
